<svg xmlns="http://www.w3.org/2000/svg" version="1.1" xmlns:xlink="http://www.w3.org/1999/xlink" xmlns:svgjs="http://svgjs.dev/svgjs" viewBox="0 0 800 800"><g stroke-width="5" stroke="hsl(205, 69%, 50%)" fill="none"><path d="M354.26599905757917 -376.77265050129273C372.9997049345334 -414.6355303397678 427.00023403031037 -414.6355303397678 445.7339399072646 -376.77265050129273L1192.1416784211644 1131.5107314470436C1208.92355794526 1165.4253089573488 1184.251452282318 1205.1698514562602 1146.407707996322 1205.1698514562602H-346.40776903147827C-384.25151331747423 1205.1698514562602 -408.9236189804158 1165.4253089573488 -392.14173945632103 1131.5107314470436L354.26599905757917 -376.77265050129273Z " transform="rotate(110, 400, 400)" opacity="0.05"></path><path d="M355.0974952749981 -362.64948338058383C373.4905883178262 -399.8239472219957 426.5092896118613 -399.8239472219957 444.9023826546895 -362.64948338058383L1177.7390713774273 1118.2105643505097C1194.2158258192665 1151.5085131788094 1169.9923038956508 1190.530427632286 1132.836627687582 1190.530427632286H-332.83674975789455C-369.9924259659633 1190.530427632286 -394.21594788957873 1151.5085131788094 -377.73919344774015 1118.2105643505097L355.0974952749981 -362.64948338058383Z " transform="rotate(108, 400, 400)" opacity="0.07"></path><path d="M355.92902200999526 -348.52640781260936C373.98150221869685 -385.0124556569581 426.01837571099077 -385.0124556569581 444.07085591969235 -348.52640781260936L1163.3364948512685 1104.910305701242C1179.5081242108513 1137.591625847536 1155.7331860265617 1175.8909122555779 1119.2655778964202 1175.8909122555779H-319.2656999667327C-355.73330809687434 1175.8909122555779 -379.5082462811635 1137.591625847536 -363.3366169215812 1104.910305701242L355.92902200999526 -348.52640781260936Z " transform="rotate(106, 400, 400)" opacity="0.09"></path><path d="M356.76057926257056 -334.40324069190046C374.4724466371457 -370.200872539186 425.5274923276979 -370.200872539186 443.2393597022733 -334.40324069190046L1148.9339488426874 1091.6101386047083C1164.8004531200143 1123.674830068997 1141.4740986750508 1161.251488431604 1105.6945586228364 1161.251488431604H-305.6946196579928C-341.4741597102072 1161.251488431604 -364.8005141551701 1123.674830068997 -348.9340098778441 1091.6101386047083L356.76057926257056 -334.40324069190046Z " transform="rotate(104, 400, 400)" opacity="0.10"></path><path d="M357.5921975503021 -320.2801040887697C374.9634520907507 -355.38931993899206 425.0366699795618 -355.38931993899206 442.4079245200105 -320.2801040887697L1134.531463869263 1078.3099409905967C1150.0928430643335 1109.7580037728799 1127.2150723586963 1146.612034090052 1092.1236003844092 1146.612034090052H-292.1234783140966C-327.21495028838376 1146.612034090052 -350.0927209940205 1109.7580037728799 -334.5313417989508 1078.3099409905967L357.5921975503021 -320.2801040887697Z " transform="rotate(102, 400, 400)" opacity="0.12"></path><path d="M358.42360221498666 -306.1569217092718C375.45424392130894 -340.57772156243095 424.54563400837856 -340.57772156243095 441.57627571470084 -306.1569217092718L1120.1287652727915 1065.009789152852C1135.3850193856056 1095.8412232531296 1112.955832419295 1131.9726255248672 1078.5524285229346 1131.9726255248672H-278.55255059324725C-312.9559544896073 1131.9726255248672 -335.3851414559178 1095.8412232531296 -320.12888734310434 1065.009789152852L358.42360221498666 -306.1569217092718Z " transform="rotate(100, 400, 400)" opacity="0.14"></path><path d="M359.2552510202963 -292.0338308825082C375.9452798924922 -325.76621473860416 424.0548421778203 -325.76621473860416 440.7448710500162 -292.0338308825082L1105.726310816945 1051.709545762373C1120.677439847503 1081.9243511806449 1098.6968366205183 1117.3331254069478 1064.9815008020855 1117.3331254069478H-264.98137873177296C-298.69671455020574 1117.3331254069478 -320.67731777719007 1081.9243511806449 -305.7261887466329 1051.709545762373L359.2552510202963 -292.0338308825082Z " transform="rotate(98, 400, 400)" opacity="0.16"></path><path d="M360.086655684981 -277.91074005574467C376.4360717230503 -310.9547079147775 423.5638062066372 -310.9547079147775 439.9132222447065 -277.91074005574467L1091.3236122204735 1038.4093023718942C1105.969616168775 1068.0074791081606 1084.4375966811167 1102.6936252890287 1051.4103289406112 1102.6936252890287H-251.41045101092362C-284.4377187514292 1102.6936252890287 -305.96973823908735 1068.0074791081606 -291.32373429078643 1038.4093023718942L360.086655684981 -277.91074005574467Z " transform="rotate(96, 400, 400)" opacity="0.17"></path><path d="M360.91818241997817 -263.7875271586686C376.92698562392104 -296.1430790206382 423.07289230576646 -296.1430790206382 439.08169550970933 -263.7875271586686L1076.9210356943147 1025.1091810517278C1091.26191456036 1054.0907291059887 1070.1784788120276 1088.054247241422 1037.8392791494493 1088.054247241422H-237.83940121976184C-270.1786008823402 1088.054247241422 -291.2620366306721 1054.0907291059887 -276.9211577646274 1025.1091810517278L360.91818241997817 -263.7875271586686Z " transform="rotate(94, 400, 400)" opacity="0.19"></path><path d="M361.7497091549752 -249.66443633190505C377.41789952479166 -281.33157219681146 422.58197840489584 -281.33157219681146 438.2501687747123 -249.66443633190505L1062.5184591681557 1011.808937661249C1076.5542129519447 1040.1738570335044 1055.9193609429387 1073.4147471235028 1024.2682293582875 1073.4147471235028H-224.2683514286C-255.91948301325118 1073.4147471235028 -276.55433502225685 1040.1738570335044 -262.51858123846847 1011.808937661249L361.7497091549752 -249.66443633190505Z " transform="rotate(92, 400, 400)" opacity="0.21"></path><path d="M362.5812358899724 -235.54122343482896C377.9088134256624 -266.51994330267223 422.0910645040251 -266.51994330267223 437.4186420397151 -235.54122343482896L1048.1158826419967 998.5088163410821C1061.8465113435295 1026.257107031332 1041.6602430738496 1058.775369075896 1010.6971795671257 1058.775369075896H-210.69730163743816C-241.66036514416214 1058.775369075896 -261.84663341384163 1026.257107031332 -248.11600471230952 998.5088163410821L362.5812358899724 -235.54122343482896Z " transform="rotate(90, 400, 400)" opacity="0.23"></path><path d="M363.4127931425477 -221.41813260806543C378.39975784411115 -251.70843647884547 421.6001811207326 -251.70843647884547 436.58714582229607 -221.41813260806543L1033.7133366334158 985.2085729506034C1047.1388402526923 1012.3402349588475 1027.4011557223387 1044.1358689579768 997.126160293542 1044.1358689579768H-197.1262213286982C-227.40121675749504 1044.1358689579768 -247.13890128784828 1012.3402349588475 -233.71339766857244 985.2085729506034L363.4127931425477 -221.41813260806543Z " transform="rotate(88, 400, 400)" opacity="0.24"></path><path d="M364.24431987754485 -207.29504178130185C378.8906717449819 -236.89692965501874 421.10926721986186 -236.89692965501874 435.7556190872989 -207.29504178130185L1019.310760107257 971.9083295601247C1032.4311386442769 998.4233628863633 1013.1420378532496 1029.4963688400576 983.5551105023803 1029.4963688400576H-183.5551715375364C-213.142098888406 1029.4963688400576 -232.43119967943306 998.4233628863633 -219.3108211424135 971.9083295601247L364.24431987754485 -207.29504178130185Z " transform="rotate(86, 400, 400)" opacity="0.26"></path><path d="M365.0758466125419 -193.17182888422582C379.3815856458526 -222.0853007608795 420.6183533189911 -222.0853007608795 434.92409235230184 -193.17182888422582L1004.908183581098 958.6082082399582C1017.7234370358619 984.5066128841913 998.8829199841607 1014.8569907924509 969.9840607112183 1014.8569907924509H-169.98412174637457C-198.88298101931696 1014.8569907924509 -217.72349807101784 984.5066128841913 -204.90824461625454 958.6082082399582L365.0758466125419 -193.17182888422582Z " transform="rotate(84, 400, 400)" opacity="0.28"></path><path d="M365.9073733475392 -179.04873805746223C379.87249954672325 -207.27379393705274 420.1274394181205 -207.27379393705274 434.09256561730456 -179.04873805746223L990.505607054939 945.3079648494793C1003.0157354274465 970.5897408117069 984.6238021150718 1000.2174906745317 956.4130109200566 1000.2174906745317H-156.41307195521279C-184.62386315022798 1000.2174906745317 -203.01579646260257 970.5897408117069 -190.50566809009553 945.3079648494793L365.9073733475392 -179.04873805746223Z " transform="rotate(82, 400, 400)" opacity="0.30"></path><path d="M366.73890008253625 -164.92552516038617C380.363413447594 -192.4621650429135 419.63652551724977 -192.4621650429135 433.2610388823075 -164.92552516038617L976.10303052878 932.0078435293128C988.3080338190314 956.6729908095347 970.3646842459827 985.5781126269248 942.8419611288946 985.5781126269248H-142.84202216405095C-170.36474528113894 985.5781126269248 -188.30809485418735 956.6729908095347 -176.10309156393657 932.0078435293128L366.73890008253625 -164.92552516038617Z " transform="rotate(80, 400, 400)" opacity="0.31"></path><path d="M367.57048785268967 -150.8024343336226C380.854388383621 -177.65065821908675 419.1456726515353 -177.65065821908675 432.4295731824666 -150.8024343336226L961.7005150377774 918.7076001388339C973.6003932457722 942.7561187370504 956.1056274120499 970.9386125090057 929.270972372889 970.9386125090057H-129.27091133773285C-156.10556637689365 970.9386125090057 -173.60033221061587 942.7561187370504 -161.70045400262137 918.7076001388339L367.57048785268967 -150.8024343336226Z " transform="rotate(78, 400, 400)" opacity="0.33"></path><path d="M368.4019535525306 -136.67934350685906C381.34524124933546 -162.83915139526002 418.6546977155083 -162.83915139526002 431.5979854123133 -136.67934350685906L947.297877476462 905.4073567483551C958.892630602201 928.839246664566 941.8464485078046 956.2991123910865 915.6998615465711 956.2991123910865H-115.69992258172732C-141.84650954296092 956.2991123910865 -158.8926916373569 928.839246664566 -147.29793851161867 905.4073567483551L368.4019535525306 -136.67934350685906Z " transform="rotate(76, 400, 400)" opacity="0.35"></path><path d="M369.23348028752764 -122.55617638615018C381.8361551502061 -148.02756827748797 418.16378381463755 -148.02756827748797 430.766458677316 -122.55617638615018L932.8953009503032 892.1071896518215C944.1849289937857 914.9224508860268 927.5873306387155 941.6596885671127 902.1288117554093 941.6596885671127H-102.12887279056548C-127.58739167387188 941.6596885671127 -144.18499002894168 914.9224508860268 -132.89536198545972 892.1071896518215L369.23348028752764 -122.55617638615018Z " transform="rotate(74, 400, 400)" opacity="0.37"></path><path d="M370.0650070225248 -108.43302452423038C382.3270690510767 -133.21600041850496 417.67286991376693 -133.21600041850496 429.93493194231894 -108.43302452423038L918.4927244241442 878.8070072964988C929.4772273853705 901.0056398486986 913.3282127696266 927.0202494843497 888.5577619642474 927.0202494843497H-88.55782299940364C-113.32827380478284 927.0202494843497 -129.4772884205264 901.0056398486986 -118.49278545930076 878.8070072964988L370.0650070225248 -108.43302452423038Z " transform="rotate(72, 400, 400)" opacity="0.38"></path><path d="M370.89653375752187 -94.30987266231057C382.81798295194744 -118.40443255952198 417.1819560128962 -118.40443255952198 429.10340520732177 -94.30987266231057L904.0901478979854 865.5068249411761C914.7695257769551 887.0888288113704 899.0690949005375 912.3808104015866 874.9867121730856 912.3808104015866H-74.98677320824186C-99.06915593569386 912.3808104015866 -114.76958681211119 887.0888288113704 -104.09020893314181 865.5068249411761L370.89653375752187 -94.30987266231057Z " transform="rotate(70, 400, 400)" opacity="0.40"></path><path d="M371.72806049251903 -80.18675131796888C383.3088968528182 -103.59289521811709 416.69104211202557 -103.59289521811709 428.2718784723246 -80.18675131796888L889.6875713718264 852.2066120682753C900.0618241685399 873.171987256464 884.8099770314484 897.7413408012455 861.4156623819238 897.7413408012455H-61.41572341708002C-84.81003806660482 897.7413408012455 -100.06188520369597 873.171987256464 -89.6876324069828 852.2066120682753L371.72806049251903 -80.18675131796888Z " transform="rotate(68, 400, 400)" opacity="0.42"></path><path d="M372.5595872275162 -66.06359945604908C383.7998107536889 -88.78132735913411 416.20012821115483 -88.78132735913411 427.44035173732755 -66.06359945604908L875.2849948456674 838.9064297129526C885.3541225601248 859.2551762191358 870.5508591623595 883.1019017184826 847.8446125907622 883.1019017184826H-47.844673625918176C-70.55092019751578 883.1019017184826 -85.35418359528074 859.2551762191358 -75.28505588082385 838.9064297129526L372.5595872275162 -66.06359945604908Z " transform="rotate(66, 400, 400)" opacity="0.44"></path><path d="M373.3911139625134 -51.94044759412924C384.29072465455965 -73.96975950015113 415.7092143102841 -73.96975950015113 426.6088250023304 -51.94044759412924L860.8824183195084 825.6062473576301C870.6464209517094 845.3383651818076 856.2917412932707 868.4624626357197 834.2735627996003 868.4624626357197H-34.27362383475639C-56.2918023284268 868.4624626357197 -70.64648198686552 845.3383651818076 -60.882479354664895 825.6062473576301L373.3911139625134 -51.94044759412924Z " transform="rotate(64, 400, 400)" opacity="0.45"></path><path d="M374.22264069751054 -37.81729573220943C384.7816385554303 -59.158191641168116 415.2183004094135 -59.158191641168116 425.7772982673332 -37.81729573220943L846.4798417933494 812.3060650023072C855.9387193432942 831.4215541444794 842.0326234241816 853.8230235529568 820.7025130084385 853.8230235529568H-20.702574043594552C-42.03268445933776 853.8230235529568 -55.9387803784503 831.4215541444794 -46.47990282850594 812.3060650023072L374.22264069751054 -37.81729573220943Z " transform="rotate(62, 400, 400)" opacity="0.47"></path><path d="M375.0541674325077 -23.694204905445872C385.2725524563009 -44.346684817341384 414.72738650854285 -44.346684817341384 424.94577153233604 -23.694204905445872L832.0772652671903 799.0058216118284C841.2310177348791 817.5046820719949 827.7735055550925 839.1835234350374 807.1314632172766 839.1835234350374H-7.131524252432712C-27.77356659024872 839.1835234350374 -41.231078770035026 817.5046820719949 -32.07732630234699 799.0058216118284L375.0541674325077 -23.694204905445872Z " transform="rotate(60, 400, 400)" opacity="0.49"></path><path d="M375.88569416750477 -9.571053043526064C385.76346635717164 -29.5351169583584 414.2364726076721 -29.5351169583584 424.114244797339 -9.571053043526064L817.6746887410316 785.7056392565057C826.5233161264637 803.5878710346667 813.5143876860034 824.5440843522745 793.5604134261146 824.5440843522745H6.439525538729072C-13.514448721159681 824.5440843522745 -26.523377161619806 803.5878710346667 -17.674749776188037 785.7056392565057L375.88569416750477 -9.571053043526064Z " transform="rotate(58, 400, 400)" opacity="0.51"></path><path d="M376.71722090250194 4.552083559604682C386.2543802580424 -14.723564358164452 413.7455587068014 -14.723564358164452 423.2827180623418 4.552083559604682L803.2721122148725 772.4054416423941C811.8156145180487 789.6710447385494 799.2552698169145 809.9046300107225 779.989363634953 809.9046300107225H20.010575329890912C0.7446691479293008 809.9046300107225 -11.815675553204585 789.6710447385494 -3.2721732500290273 772.4054416423941L376.71722090250194 4.552083559604682Z " transform="rotate(56, 400, 400)" opacity="0.53"></path><path d="M377.54880867265524 18.67523542152449C386.74535519406936 0.08800350081853026 413.2547058410869 0.08800350081853026 422.451252362501 18.67523542152449L788.86959672387 759.1052592870712C797.1079739447896 775.7542337012211 784.9962129829817 795.2651909279593 766.4183748789474 795.2651909279593H33.581686156209C15.00384805217459 795.2651909279593 2.8920870903668856 775.7542337012211 11.130464311286175 759.1052592870712L377.54880867265524 18.67523542152449Z " transform="rotate(54, 400, 400)" opacity="0.54"></path><path d="M378.38027437249616 32.7983872834443C387.23620805978385 14.899571359801541 412.7637309050599 14.899571359801541 421.6196645923476 32.7983872834443L774.4669591625548 745.8050769317487C782.400211301218 761.837422663893 770.7370340787363 780.6257518451965 752.8472640526292 780.6257518451965H47.152674912214536C29.26290488610738 780.6257518451965 17.599727663625856 761.837422663893 25.532979802288878 745.8050769317487L378.38027437249616 32.7983872834443Z " transform="rotate(52, 400, 400)" opacity="0.56"></path><path d="M379.21180110749333 46.92153914536411C387.7271219606545 29.711139218784524 412.2728170041893 29.711139218784524 420.7881378573504 46.92153914536411L760.0643826363957 732.504894576426C767.6925096928028 747.9206116265648 756.4779162096474 765.9863127624336 739.2762142614673 765.9863127624336H60.72372470337638C43.52202275519636 765.9863127624336 32.30742927204108 747.9206116265648 39.93555632844783 732.504894576426L379.21180110749333 46.92153914536411Z " transform="rotate(50, 400, 400)" opacity="0.58"></path><path d="M380.0433278424905 61.044629972127666C388.2180358615251 44.52264604261126 411.78190310331865 44.52264604261126 419.95661112235325 61.044629972127666L745.6618061102367 719.2046511859471C752.9848080843875 734.0037395540803 742.2187983405584 751.3468126445143 725.7051644703056 751.3468126445143H74.29477449453816C57.7811406242854 751.3468126445143 47.015130880456354 734.0037395540803 54.33813285460678 719.2046511859471L380.0433278424905 61.044629972127666Z " transform="rotate(48, 400, 400)" opacity="0.60"></path><path d="M380.87485457748767 75.16778183404747C388.70894976239583 59.33421390159427 411.2909892024479 59.33421390159427 419.1250843873561 75.16778183404747L731.2592295840778 705.9044688306245C738.2771064759723 720.0869285167522 727.9596804714694 736.7073735617514 712.1341146791437 736.7073735617514H87.8658242857C72.04025849337444 736.7073735617514 61.722832488871575 720.0869285167522 68.74070938076574 705.9044688306245L380.87485457748767 75.16778183404747Z " transform="rotate(46, 400, 400)" opacity="0.61"></path><path d="M381.70638131248484 89.29093369596728C389.19986366326657 74.14578176057725 410.8000753015772 74.14578176057725 418.2935576523589 89.29093369596728L716.8566530579188 692.6042864753017C723.5694048675571 706.1701174794238 713.7005626023803 722.0679344789884 698.5630648879819 722.0679344789884H101.43687407686184C86.29937636246342 722.0679344789884 76.4305340972868 706.1701174794238 83.14328590692475 692.6042864753017L381.70638131248484 89.29093369596728Z " transform="rotate(44, 400, 400)" opacity="0.63"></path><path d="M382.5379080474819 103.41408555788709C389.6907775641373 88.95734961956026 410.30916140070644 88.95734961956026 417.46203091736186 103.41408555788709L702.4540765317599 679.3041041199791C708.8617032591419 692.2533064420957 699.4414447332913 707.4284953962255 684.9920150968201 707.4284953962255H115.00792386802362C100.55849423155246 707.4284953962255 91.13823570570202 692.2533064420957 97.5458624330837 679.3041041199791L382.5379080474819 103.41408555788709Z " transform="rotate(42, 400, 400)" opacity="0.65"></path><path d="M383.36943478247906 117.5372374198069C390.18169146500793 103.76891747854324 409.8182474998358 103.76891747854324 416.6305041823647 117.5372374198069L688.0515000056009 666.0039217646564C694.1540016507266 678.3364954047673 685.1823268642023 692.7890563134624 671.4209653056582 692.7890563134624H128.57897365918546C114.8176121006415 692.7890563134624 105.84593731411724 678.3364954047673 111.94843895924265 666.0039217646564L383.36943478247906 117.5372374198069Z " transform="rotate(40, 400, 400)" opacity="0.67"></path><path d="M384.20096151747623 131.6603282465705C390.67260536587867 118.58042430236998 409.3273335989651 118.58042430236998 415.79897744736763 131.6603282465705L673.6489234794419 652.7036783741776C679.4463000423115 664.419623332283 670.9232089951132 678.1495561955433 657.8499155144965 678.1495561955433H142.1500234503473C129.07672996973048 678.1495561955433 120.55363892253251 664.419623332283 126.3510154854016 652.7036783741776L384.20096151747623 131.6603282465705Z " transform="rotate(38, 400, 400)" opacity="0.68"></path><path d="M385.0324882524733 145.7834801084903C391.1635192667493 133.391992161353 408.83641969809446 133.391992161353 414.96745071237046 145.7834801084903L659.246346953283 639.4034960188549C664.7385984338962 650.5028122949548 656.6640911260242 663.5101171127803 644.2788657233347 663.5101171127803H155.7210732415091C143.33584783881952 663.5101171127803 135.26134053094773 650.5028122949548 140.75359201156056 639.4034960188549L385.0324882524733 145.7834801084903Z " transform="rotate(36, 400, 400)" opacity="0.70"></path><path d="M385.8640302462595 159.90661671162104C391.6544484264091 148.2035447615469 408.3455210560128 148.2035447615469 414.13593923616236 159.90661671162104L644.8437856859132 626.1032984047431C650.03091208427 636.5859859988375 642.4049885157242 648.8706627712282 630.7078311909619 648.8706627712282H169.29213829146C157.59498096669762 648.8706627712282 149.96905739815202 636.5859859988375 155.15618379650857 626.1032984047431L385.8640302462595 159.90661671162104Z " transform="rotate(34, 400, 400)" opacity="0.72"></path><path d="M386.6955569812567 174.02976857354085C392.1453623272798 163.01511262052992 407.85460715514205 163.01511262052992 413.3044125011652 174.02976857354085L630.4412091597542 612.8031160494205C635.3232104758547 622.6691749615093 628.1458706466353 634.2312236884653 617.1367813998002 634.2312236884653H182.86318808262183C171.8540988357866 634.2312236884653 164.67675900656724 622.6691749615093 169.55876032266752 612.8031160494205L386.6955569812567 174.02976857354085Z " transform="rotate(32, 400, 400)" opacity="0.74"></path><path d="M387.52708371625386 188.15288991788253C392.63627622815045 177.82664996193478 407.3636932542714 177.82664996193478 412.472885766168 188.15288991788253L616.0386326335952 599.5029031765197C620.6155088674395 608.7523334066029 613.8867527775462 619.5917540881242 603.5657316086383 619.5917540881242H196.43423787378362C186.11321670487564 619.5917540881242 179.38446061498246 608.7523334066029 183.96133684882653 599.5029031765197L387.52708371625386 188.15288991788253Z " transform="rotate(30, 400, 400)" opacity="0.75"></path><path d="M388.35862571004003 202.27604177980234C393.12720538781025 192.63821782091776 406.87279461218975 192.63821782091776 411.64137428995997 202.27604177980234L601.6360713662253 586.2027208211971C605.9078225178134 594.8355223692747 599.6276501672463 604.9523150053612 589.9946970762655 604.9523150053612H210.00530292373452C200.37234983275374 604.9523150053612 194.09217748218674 594.8355223692747 198.36392863377455 586.2027208211971L388.35862571004003 202.27604177980234Z " transform="rotate(28, 400, 400)" opacity="0.77"></path><path d="M389.19015244503714 216.39919364172215C393.618119288681 207.44978567990077 406.381880711319 207.44978567990077 410.80984755496286 216.39919364172215L587.2334948400664 572.9025384658744C591.200120909398 580.9187113319465 585.3685322981572 590.3128759225983 576.4236472851037 590.3128759225983H223.57635271489636C214.63146770184272 590.3128759225983 208.79987909060202 580.9187113319465 212.7665051599335 572.9025384658744L389.19015244503714 216.39919364172215Z " transform="rotate(26, 400, 400)" opacity="0.79"></path><path d="M390.0216791800343 230.52231498606383C394.1090331895516 222.26132302130563 405.8909668104484 222.26132302130563 409.9783208199657 230.52231498606383L572.8309183139074 559.6023255929736C576.4924193009829 567.0018697770402 571.1094144290682 575.6734063222572 562.8525974939419 575.6734063222572H237.14740250605814C228.89058557093176 575.6734063222572 223.50758069901724 567.0018697770402 227.16908168609245 559.6023255929736L390.0216791800343 230.52231498606383Z " transform="rotate(24, 400, 400)" opacity="0.81"></path><path d="M390.8532059150315 244.64546684798364C394.59994709042235 237.07289088028864 405.40005290957765 237.07289088028864 409.1467940849685 244.64546684798364L558.4283417877484 546.3021432376509C561.7847176925676 553.0850587397119 556.8502965599791 561.0339672394941 549.28154770278 561.0339672394941H250.71845229721998C243.1497034400208 561.0339672394941 238.21528230743246 553.0850587397119 241.5716582122514 546.3021432376509L390.8532059150315 244.64546684798364Z " transform="rotate(22, 400, 400)" opacity="0.82"></path><path d="M391.6847326500286 258.7685881923253C395.090860991293 251.8844282216935 404.909139008707 251.8844282216935 408.3152673499714 258.7685881923253L544.0257652615895 533.00193036475C547.0770160841523 539.1682171848056 542.5911786908903 546.3944976391531 535.7104979116182 546.3944976391531H264.2895020883818C257.4088213091098 546.3944976391531 252.92298391584768 539.1682171848056 255.97423473841036 533.00193036475L391.6847326500286 258.7685881923253Z " transform="rotate(20, 400, 400)" opacity="0.84"></path><path d="M392.5162593850257 272.89174005424513C395.5817748921637 266.6959960806765 404.4182251078363 266.6959960806765 407.4837406149743 272.89174005424513L529.6231887354306 519.7017480094274C532.3693144757372 525.2514061474774 528.3320608218012 531.7550585563902 522.1394481204563 531.7550585563902H277.8605518795436C271.6679391781988 531.7550585563902 267.6306855242629 525.2514061474774 270.37681126456937 519.7017480094274L392.5162593850257 272.89174005424513Z " transform="rotate(18, 400, 400)" opacity="0.86"></path><path d="M393.3477861200229 287.01488428677044C396.07268879303444 281.50755631026493 403.92731120696556 281.50755631026493 406.6522138799771 287.01488428677044L515.2206122092716 506.40155802471025C517.6616128673219 511.33458748075464 514.0729429527122 517.1156118442327 508.5683983292946 517.1156118442327H291.43160167070545C285.92705704728786 517.1156118442327 282.3383871326782 511.33458748075464 284.7793877907283 506.40155802471025L393.3477861200229 287.01488428677044Z " transform="rotate(16, 400, 400)" opacity="0.88"></path><path d="M394.17931285502004 301.13802088990116C396.5636026939051 296.3191089104589 403.4363973060949 296.3191089104589 405.82068714497996 301.13802088990116L500.81803568311267 493.10136041059855C502.9539112589067 497.41776118463736 499.81382508362316 502.4761575026806 494.99734853813277 502.4761575026806H305.00265146186723C300.18617491637684 502.4761575026806 297.0460887410934 497.41776118463736 299.1819643168873 493.10136041059855L394.17931285502004 301.13802088990116Z " transform="rotate(14, 400, 400)" opacity="0.89"></path><path d="M395.01083959001716 315.26115749303193C397.0545165947758 311.1306615106528 402.9454834052242 311.1306615106528 404.98916040998284 315.26115749303193L486.4154591569537 479.8011627964868C488.24620965049144 483.5009348885201 485.5547072145341 487.8367031611286 481.42629874697093 487.8367031611286H318.57370125302907C314.4452927854659 487.8367031611286 311.7537903495086 483.5009348885201 313.5845408430462 479.8011627964868L395.01083959001716 315.26115749303193Z " transform="rotate(12, 400, 400)" opacity="0.91"></path><path d="M395.84236632501427 329.3843017255572C397.54543049564654 325.9422217402413 402.45456950435346 325.9422217402413 404.15763367498573 329.3843017255572L472.01288263079476 466.50097281176954C473.53850804207616 469.58411622179733 471.29558934544514 473.1972564489711 467.8552489558091 473.1972564489711H332.1447510441909C328.7044106545549 473.1972564489711 326.46149195792384 469.58411622179733 327.9871173692052 466.50097281176954L395.84236632501427 329.3843017255572Z " transform="rotate(10, 400, 400)" opacity="0.93"></path><path d="M396.67389306001144 343.50743832868795C398.0363443965172 340.7537743404352 401.9636556034828 340.7537743404352 403.32610693998856 343.50743832868795L457.6103061046358 453.2007751976579C458.83080643366094 455.66728992568005 457.0364714763561 458.5578021074191 454.2841991646473 458.5578021074191H345.7158008353527C342.9635285236439 458.5578021074191 341.16919356633906 455.66728992568005 342.38969389536413 453.2007751976579L396.67389306001144 343.50743832868795Z " transform="rotate(8, 400, 400)" opacity="0.95"></path><path d="M397.5054197950086 357.6305901906078C398.5272582973879 355.5653421994182 401.4727417026121 355.5653421994182 402.4945802049914 357.6305901906078L443.20772957847686 439.9005928423352C444.1231048252457 441.75047888835184 442.77735360726706 443.91836302465606 440.71314937348546 443.91836302465606H359.28685062651454C357.22264639273294 443.91836302465606 355.8768951747543 441.75047888835184 356.79227042152314 439.9005928423352L397.5054197950086 357.6305901906078Z " transform="rotate(6, 400, 400)" opacity="0.96"></path><path d="M398.3369465300057 371.7537267937385C399.0181721982586 370.37689479961216 400.9818278017414 370.37689479961216 401.6630534699943 371.7537267937385L428.8051530523179 426.6003952282235C429.4154032168305 427.83365259223456 428.518235738178 429.2789086831041 427.1420995823236 429.2789086831041H372.8579004176764C371.481764261822 429.2789086831041 370.58459678316956 427.83365259223456 371.1948469476821 426.6003952282235L398.3369465300057 371.7537267937385Z " transform="rotate(4, 400, 400)" opacity="0.98"></path><path d="M399.16847326500283 385.8768633968692C399.5090860991293 385.1884473998061 400.4909139008707 385.1884473998061 400.83152673499717 385.8768633968692L414.40257652615895 413.3001976141117C414.7077016084152 413.9168262961173 414.25911786908904 414.63945434155204 413.57104979116184 414.63945434155204H386.42895020883816C385.74088213091096 414.63945434155204 385.2922983915848 413.9168262961173 385.59742347384105 413.3001976141117L399.16847326500283 385.8768633968692Z " transform="rotate(2, 400, 400)" opacity="1.00"></path></g></svg>