<svg xmlns="http://www.w3.org/2000/svg" version="1.1" xmlns:xlink="http://www.w3.org/1999/xlink" xmlns:svgjs="http://svgjs.dev/svgjs" viewBox="0 0 800 800"><g stroke-width="1" stroke="hsl(205, 69%, 50%)" fill="none" stroke-linecap="round"><path d="M-386.25 541.5020855494907C-358.1696428571429 494.8886926923479 -217.7678571428571 162.9788712637765 -161.6071428571429 168.59494269234796C-105.44642857142856 174.21101412091934 6.875 576.040924835205 63.03571428571422 586.4306569780622C119.19642857142856 596.8203891209193 231.5178571428571 255.64404983520507 287.67857142857144 251.7127998352051C343.83928571428567 247.78154983520506 456.16071428571433 547.3989605494908 512.3214285714286 554.9806569780621C568.4821428571429 562.5623534066336 680.8035714285713 302.8190498352051 736.9642857142858 312.3663712637765C793.125 321.9136926923479 905.4464285714287 625.181549835205 961.6071428571429 631.3592284066336C1017.7678571428571 637.5369069780622 1158.169642857143 395.48422840663363 1186.25 361.7877998352051 " transform="rotate(46.25, 400, 400)"></path><path d="M-365 537.6776994977679C-337.67857142857144 492.3241280691964 -201.07142857142856 169.38484235491072 -146.42857142857144 174.8491280691964C-91.78571428571428 180.31341378348213 17.5 571.283056640625 72.14285714285711 581.3919852120536C126.78571428571422 591.5009137834821 236.07142857142856 259.545556640625 290.71428571428567 255.720556640625C345.3571428571429 251.895556640625 454.6428571428571 543.4151994977678 509.28571428571433 550.7919852120535C563.9285714285716 558.1687709263392 673.2142857142858 305.445556640625 727.8571428571429 314.7348423549107C782.5 324.0241280691964 891.7857142857142 619.095556640625 946.4285714285713 625.1062709263392C1001.0714285714287 631.1169852120536 1137.6785714285713 395.6062709263393 1165 362.820556640625 " transform="rotate(45, 400, 400)"></path><path d="M-343.75 533.8534049987793C-317.1875 489.7596549987793 -184.375 175.7909049987793 -131.25 181.1034049987793C-78.125 186.4159049987793 28.125 566.5252799987793 81.25 576.3534049987793C134.375 586.1815299987793 240.625 263.4471549987793 293.75 259.7284049987793C346.875 256.0096549987793 453.125 539.4315299987793 506.25 546.6034049987793C559.375 553.7752799987793 665.625 308.0721549987793 718.75 317.1034049987793C771.875 326.1346549987793 878.125 613.0096549987793 931.25 618.8534049987793C984.375 624.6971549987793 1117.1875 395.7284049987793 1143.75 363.8534049987793 " transform="rotate(43.75, 400, 400)"></path><path d="M-322.5 530.0289579119001C-296.69642857142856 487.1950293404715 -167.67857142857142 182.19681505475725 -116.07142857142856 187.35752934047156C-64.46428571428572 192.51824362618584 38.75 561.7673507690429 90.35714285714289 571.3146721976143C141.96428571428578 580.8619936261857 245.17857142857144 267.34860076904295 296.78571428571433 263.736100769043C348.3928571428571 260.123600769043 451.6071428571429 535.4477079119001 503.21428571428567 542.4146721976143C554.8214285714286 549.3816364833286 658.0357142857142 310.69860076904297 709.6428571428571 319.47181505475726C761.25 328.24502934047155 864.4642857142858 606.9236007690429 916.0714285714287 612.6003864833286C967.6785714285713 618.2771721976144 1096.6964285714287 395.85038648332863 1122.5 364.88610076904297 " transform="rotate(42.5, 400, 400)"></path><path d="M-301.25 526.2046176365443C-276.2053571428571 484.6305104936872 -150.98214285714286 188.60283192225864 -100.89285714285711 193.6117604936872C-50.803571428571445 198.6206890651158 49.375 557.0095283508301 99.46428571428572 566.276046207973C149.55357142857144 575.5425640651158 249.7321428571429 271.2501533508301 299.82142857142856 267.74390335083007C349.91071428571433 264.2376533508301 450.08928571428567 531.4639926365444 500.17857142857144 538.2260462079729C550.2678571428571 544.9880997794015 650.4464285714284 313.3251533508301 700.5357142857142 321.84033192225866C750.625 330.35551049368723 850.8035714285713 600.8376533508301 900.8928571428571 606.3474747794015C950.9821428571429 611.8572962079729 1076.205357142857 395.9724747794015 1101.25 365.9189033508301 " transform="rotate(41.25, 400, 400)"></path><path d="M-280 522.3802163260324C-255.71428571428572 482.06593061174664 -134.28571428571428 195.00878775460382 -85.71428571428572 199.86593061174665C-37.14285714285711 204.7230734688895 60 552.2516448974609 108.57142857142856 561.2373591831752C157.1428571428571 570.2230734688894 254.28571428571433 275.1516448974609 302.8571428571429 271.75164489746095C351.42857142857144 268.3516448974609 448.57142857142856 527.4802163260324 497.1428571428571 534.0373591831751C545.7142857142857 540.594502040318 642.8571428571429 315.95164489746094 691.4285714285716 324.2087877546038C740 332.46593061174667 837.1428571428571 594.7516448974609 885.7142857142858 600.094502040318C934.2857142857142 605.4373591831752 1055.7142857142858 396.09450204031805 1080 366.95164489746094 " transform="rotate(40, 400, 400)"></path><path d="M-258.75 518.5558150155202C-235.22321428571428 479.50135072980606 -117.58928571428572 201.41474358694893 -70.53571428571428 206.1201007298061C-23.48214285714289 210.8254578726632 70.625 547.4937614440917 117.67857142857144 556.1986721583775C164.7321428571429 564.9035828726632 258.83928571428567 279.0531364440918 305.8928571428571 275.7593864440918C352.94642857142856 272.4656364440918 447.05357142857144 523.4964400155203 494.1071428571429 529.8486721583774C541.1607142857143 536.2009043012347 635.2678571428571 318.5781364440918 682.3214285714284 326.57724358694895C729.375 334.57635072980605 823.4821428571429 588.6656364440917 870.5357142857142 593.8415293012347C917.5892857142858 599.0174221583775 1035.2232142857142 396.21652930123463 1058.75 367.9843864440918 " transform="rotate(38.75, 400, 400)"></path><path d="M-237.5 514.7314747401646C-214.73214285714286 476.93683188302174 -100.89285714285714 207.82076045445035 -55.35714285714289 212.37433188302177C-9.821428571428555 216.92790331159318 81.25 542.7359390258789 126.78571428571428 551.160046168736C172.32142857142856 559.5841533115931 263.3928571428571 282.9546890258789 308.92857142857144 279.7671890258789C354.46428571428567 276.5796890258789 445.53571428571433 519.5127247401646 491.07142857142856 525.660046168736C536.6071428571429 531.8073675973075 627.6785714285714 321.2046890258789 673.2142857142857 328.94576045445035C718.75 336.68683188302174 809.8214285714287 582.5796890258789 855.3571428571429 587.5886175973075C900.8928571428571 592.597546168736 1014.7321428571429 396.33861759730746 1037.5 369.0171890258789 " transform="rotate(37.5, 400, 400)"></path><path d="M-216.25 510.9071039472307C-194.24107142857144 474.3722825186593 -84.19642857142858 214.2267468043736 -40.178571428571445 218.6285325186593C3.8392857142857224 223.03031823294504 91.875 537.9780860900879 135.89285714285717 546.1213896615164C179.91071428571428 554.2646932329451 267.94642857142856 286.85621109008787 311.96428571428567 283.7749610900879C355.9821428571429 280.6937110900879 444.0178571428571 515.5289789472307 488.03571428571433 521.4713896615165C532.0535714285714 527.4138003758021 620.0892857142857 323.8312110900879 664.1071428571429 331.3142468043736C708.125 338.7972825186593 796.1607142857142 576.4937110900879 840.1785714285713 581.3356753758021C884.1964285714287 586.1776396615164 994.2410714285713 396.46067537580217 1016.25 370.0499610900879 " transform="rotate(36.25, 400, 400)"></path><path d="M-195 507.0826416015625C-173.75 471.8076416015625 -67.5 220.6326416015625 -25 224.8826416015625C17.5 229.1326416015625 102.5 533.2201416015625 145 541.0826416015625C187.5 548.9451416015625 272.5 290.7576416015625 315 287.7826416015625C357.5 284.8076416015625 442.5 511.5451416015625 485 517.2826416015625C527.5 523.0201416015625 612.5 326.4576416015625 655 333.6826416015625C697.5 340.9076416015625 782.5 570.4076416015625 825 575.0826416015625C867.5 579.7576416015625 973.75 396.5826416015625 995 371.0826416015625 " transform="rotate(35, 400, 400)"></path><path d="M-173.75 503.25833184378484C-153.25892857142856 469.24315327235627 -50.803571428571445 227.038688986642 -9.821428571428555 231.1369032723563C31.160714285714278 235.23511755807058 113.125 528.4623497009277 154.10714285714283 536.0440461294991C195.08928571428572 543.6257425580706 277.05357142857144 294.6592247009277 318.0357142857142 291.79047470092775C359.0178571428571 288.9217247009277 440.9821428571429 507.56145684378487 481.96428571428567 513.0940461294991C522.9464285714286 518.6266354152134 604.9107142857143 329.08422470092773 645.8928571428571 336.05118898664205C686.875 343.0181532723563 768.8392857142858 564.3217247009277 809.8214285714284 568.8297604152134C850.8035714285713 573.3377961294991 953.2589285714287 396.7047604152134 973.75 372.11547470092773 " transform="rotate(33.75, 400, 400)"></path><path d="M-152.5 499.43390001569475C-132.76785714285714 466.6785428728376 -34.10714285714286 233.44461430140905 5.35714285714289 237.3910428728376C44.821428571428555 241.33747144426619 123.75 523.7044357299804 163.21428571428572 531.0053285871234C202.67857142857144 538.3062214442662 281.6071428571429 298.5606857299805 321.07142857142856 295.79818572998045C360.53571428571433 293.03568572998046 439.46428571428567 503.57765001569476 478.92857142857144 508.90532858712334C518.3928571428571 514.2330071585518 597.3214285714286 331.71068572998047 636.7857142857143 338.419614301409C676.25 345.1285428728376 755.1785714285714 558.2356857299804 794.6428571428571 562.5767571585519C834.1071428571429 566.9178285871233 932.7678571428571 396.8267571585519 952.5 373.14818572998047 " transform="rotate(32.5, 400, 400)"></path><path d="M-131.25 495.6095292227609C-112.27678571428572 464.1139935084752 -17.410714285714278 239.85060065133231 20.535714285714278 243.64524350847518C58.48214285714289 247.439886365618 134.375 518.9465827941895 172.32142857142856 525.9666720799037C210.26785714285717 532.986761365618 286.1607142857142 302.46220779418945 324.1071428571429 299.80595779418945C362.05357142857144 297.14970779418945 437.94642857142856 499.5939042227609 475.8928571428571 504.71667207990373C513.8392857142857 509.83943993704656 589.7321428571429 334.33720779418945 627.6785714285714 340.78810065133234C665.625 347.2389935084752 741.5178571428571 552.1497077941895 779.4642857142857 556.3238149370466C817.4107142857142 560.4979220799037 912.2767857142858 396.94881493704656 931.25 374.18095779418945 " transform="rotate(31.25, 400, 400)"></path><path d="M-110 491.78512791224887C-91.78571428571428 461.5494136265346 -0.7142857142857224 246.25655648367746 35.71428571428572 249.8994136265346C72.14285714285711 253.54227076939173 145 514.1886993408203 181.42857142857144 520.9279850551061C217.85714285714283 527.6672707693917 290.7142857142857 306.3636993408203 327.1428571428571 303.81369934082034C363.57142857142856 301.2636993408203 436.42857142857144 495.6101279122489 472.8571428571429 500.527985055106C509.28571428571433 505.4458421979632 582.1428571428571 336.9636993408203 618.5714285714286 343.15655648367743C655 349.3494136265346 727.8571428571429 546.0636993408203 764.2857142857143 550.0708421979632C800.7142857142857 554.077985055106 891.7857142857142 397.0708421979632 910 375.2136993408203 " transform="rotate(30, 400, 400)"></path><path d="M-88.75 487.9607418605259C-71.29464285714286 458.9848490033831 15.982142857142861 252.66252757481166 50.89285714285714 256.1535990033831C85.80357142857144 259.6446704319545 155.625 509.43083114624017 190.53571428571428 515.8893132890973C225.44642857142856 522.3477954319544 295.26785714285717 310.26520614624025 330.17857142857144 307.8214561462402C365.0892857142858 305.37770614624026 434.91071428571433 491.6263668605259 469.82142857142856 496.3393132890974C504.7321428571429 501.0522597176688 574.5535714285714 339.59020614624023 609.4642857142857 345.52502757481165C644.375 351.45984900338306 714.1964285714286 539.9777061462403 749.1071428571429 543.8178847176687C784.0178571428571 547.6580632890973 871.2946428571429 397.1928847176688 888.75 376.24645614624023 " transform="rotate(28.75, 400, 400)"></path><path d="M-67.5 484.1364015851702C-50.80357142857143 456.42033015659877 32.678571428571445 259.06854444231305 66.07142857142858 262.4078301565988C99.46428571428572 265.7471158708845 166.25 504.67300872802736 199.64285714285717 510.8506872994559C233.03571428571428 517.0283658708845 299.82142857142856 314.16675872802733 333.2142857142857 311.82925872802736C366.6071428571429 309.4917587280273 433.3928571428571 487.6426515851702 466.78571428571433 492.1506872994559C500.17857142857144 496.6587230137416 566.9642857142857 342.21675872802734 600.3571428571429 347.89354444231304C633.75 353.57033015659874 700.5357142857143 533.8917587280273 733.9285714285714 537.5649730137416C767.3214285714286 541.2381872994558 850.8035714285714 397.3149730137416 867.5 377.27925872802734 " transform="rotate(27.5, 400, 400)"></path><path d="M-46.25 480.3120002746582C-30.3125 453.8557502746582 49.375 265.4745002746582 81.25 268.6620002746582C113.125 271.8495002746582 176.875 499.9151252746582 208.75 505.8120002746582C240.625 511.7088752746582 304.375 318.0682502746582 336.25 315.8370002746582C368.125 313.6057502746582 431.875 483.6588752746582 463.75 487.9620002746582C495.625 492.2651252746582 559.375 344.8432502746582 591.25 350.2620002746582C623.125 355.6807502746582 686.875 527.8057502746582 718.75 531.3120002746582C750.625 534.8182502746582 830.3125 397.4370002746582 846.25 378.3120002746582 " transform="rotate(26.25, 400, 400)"></path><path d="M-25 476.48763711111883C-9.82142857142857 451.2912085396903 66.07142857142856 271.880494253976 96.42857142857144 274.9162085396903C126.78571428571428 277.9519228254046 187.5 495.1572799682617 217.8571428571429 500.77335139683316C248.21428571428572 506.38942282540455 308.92857142857144 321.9697799682617 339.2857142857143 319.8447799682617C369.64285714285717 317.7197799682617 430.3571428571429 479.67513711111883 460.7142857142858 483.77335139683316C491.07142857142856 487.87156568254744 551.7857142857143 347.4697799682617 582.1428571428571 352.630494253976C612.5 357.7912085396903 673.2142857142857 521.7197799682617 703.5714285714286 525.0590656825475C733.9285714285714 528.3983513968332 809.8214285714286 397.55906568254744 825 379.3447799682617 " transform="rotate(25, 400, 400)"></path><path d="M-3.75 472.66323580060686C10.669642857142861 448.7266286577497 82.76785714285714 278.28645008632117 111.60714285714286 281.1703786577497C140.44642857142858 284.0543072291783 198.125 490.39939651489254 226.96428571428572 495.7346643720354C255.80357142857144 501.0699322291782 313.48214285714283 325.87127151489256 342.32142857142856 323.8525215148926C371.1607142857143 321.8337715148926 428.8392857142858 475.69136080060684 457.67857142857144 479.58466437203543C486.5178571428571 483.477967943464 544.1964285714286 350.0962715148926 573.0357142857143 354.99895008632114C601.875 359.9016286577497 659.5535714285714 515.6337715148925 688.3928571428571 518.806092943464C717.2321428571429 521.9784143720354 789.3303571428571 397.681092943464 803.75 380.3775215148926 " transform="rotate(23.75, 400, 400)"></path><path d="M17.5 468.838865007673C31.160714285714292 446.16207929338725 99.46428571428572 284.6924364362444 126.78571428571428 287.4245792933873C154.10714285714286 290.15672215053013 208.75 485.64154357910155 236.07142857142856 490.69600786481584C263.3928571428571 495.75047215053013 318.0357142857143 329.7727935791016 345.35714285714283 327.86029357910155C372.67857142857144 325.9477935791016 427.32142857142856 471.707615007673 454.6428571428571 475.39600786481583C481.9642857142858 479.0844007219587 536.6071428571429 352.72279357910156 563.9285714285714 357.3674364362444C591.25 362.0120792933873 645.8928571428571 509.54779357910155 673.2142857142857 512.5531507219587C700.5357142857143 515.5585078648159 768.8392857142857 397.8031507219587 782.5 381.41029357910156 " transform="rotate(22.5, 400, 400)"></path><path d="M38.75 465.0144942147391C51.65178571428571 443.5975299290248 116.16071428571428 291.0984227861677 141.96428571428572 293.6787799290248C167.76785714285714 296.259137071882 219.375 480.8836906433105 245.17857142857144 485.6573513575962C270.9821428571429 490.4310120718819 322.5892857142857 333.67431564331054 348.39285714285717 331.86806564331056C374.19642857142856 330.0618156433105 425.80357142857144 467.7238692147391 451.6071428571429 471.2073513575962C477.4107142857142 474.6908335004534 529.0178571428571 355.34931564331055 554.8214285714286 359.7359227861677C580.625 364.12252992902484 632.2321428571429 503.4618156433105 658.0357142857143 506.3002085004534C683.8392857142857 509.13860135759626 748.3482142857143 397.9252085004534 761.25 382.44306564331055 " transform="rotate(21.25, 400, 400)"></path><path d="M60 461.1901386805943C72.14285714285714 441.0329958234514 132.85714285714286 297.50442439488 157.14285714285714 299.93299582345145C181.42857142857144 302.3615672520229 230 476.12585296630857 254.28571428571428 480.6187101091657C278.57142857142856 485.11156725202284 327.14285714285717 337.5758529663086 351.42857142857144 335.87585296630857C375.7142857142857 334.1758529663086 424.2857142857143 463.7401386805943 448.57142857142856 467.0187101091657C472.8571428571429 470.29728153773715 521.4285714285714 357.9758529663086 545.7142857142858 362.10442439488C570 366.23299582345146 618.5714285714286 497.37585296630857 642.8571428571429 500.04728153773715C667.1428571428571 502.7187101091657 727.8571428571429 398.04728153773715 740 383.4758529663086 " transform="rotate(20, 400, 400)"></path><path d="M81.25 457.3657221112932C92.63392857142857 438.46840068272184 149.55357142857144 303.9103649684361 172.32142857142856 306.18715068272184C195.08928571428572 308.4639363970075 240.625 471.3679542541504 263.3928571428571 475.58000782557895C286.1607142857143 479.7920613970075 331.69642857142856 341.4773292541504 354.4642857142857 339.8835792541504C377.23214285714283 338.2898292541504 422.76785714285717 459.7563471112932 445.5357142857143 462.83000782557895C468.30357142857144 465.90366853986467 513.8392857142858 360.6023292541504 536.6071428571429 364.4728649684361C559.375 368.34340068272184 604.9107142857143 491.2898292541504 627.6785714285714 493.79429353986467C650.4464285714286 496.29875782557895 707.3660714285714 398.16929353986467 718.75 384.5085792541504 " transform="rotate(18.75, 400, 400)"></path><path d="M102.5 453.5413360595703C113.125 435.9038360595703 166.25 310.3163360595703 187.5 312.4413360595703C208.75 314.5663360595703 251.25 466.61008605957034 272.5 470.5413360595703C293.75 474.4725860595703 336.25 345.3788360595703 357.5 343.89133605957034C378.75 342.4038360595703 421.25 455.7725860595703 442.5 458.64133605957034C463.75 461.5100860595703 506.25 363.2288360595703 527.5 366.8413360595703C548.75 370.45383605957034 591.25 485.20383605957034 612.5 487.5413360595703C633.75 489.8788360595703 686.875 398.2913360595703 697.5 385.5413360595703 " transform="rotate(17.5, 400, 400)"></path><path d="M123.75 449.71698052542547C133.61607142857144 433.33930195399694 182.94642857142856 316.72233766828265 202.67857142857144 318.6955519539969C222.41071428571428 320.6687662397112 261.875 461.85224838256835 281.6071428571429 465.5026948111398C301.3392857142857 469.1531412397112 340.80357142857144 349.28037338256837 360.5357142857143 347.89912338256835C380.26785714285717 346.5178733825684 419.73214285714283 451.7888555254255 439.4642857142857 454.4526948111398C459.19642857142856 457.116534096854 498.6607142857143 365.85537338256836 518.3928571428571 369.20983766828266C538.125 372.56430195399696 577.5892857142858 479.11787338256835 597.3214285714286 481.2884090968541C617.0535714285714 483.45894481113976 666.3839285714286 398.4134090968541 676.25 386.57412338256836 " transform="rotate(16.25, 400, 400)"></path><path d="M145 445.8926021030971C154.10714285714286 430.77474496023996 199.64285714285714 323.1283163888114 217.85714285714286 324.94974496023997C236.07142857142856 326.7711735316685 272.5 457.0943878173828 290.7142857142857 460.4640306745257C308.92857142857144 463.8336735316685 345.3571428571429 353.1818878173828 363.57142857142856 351.9068878173828C381.7857142857143 350.6318878173828 418.2142857142857 447.8051021030971 436.42857142857144 450.26403067452566C454.64285714285717 452.72295924595426 491.07142857142856 368.4818878173828 509.2857142857143 371.5783163888114C527.5 374.67474496023993 563.9285714285714 473.0318878173828 582.1428571428571 475.03545924595426C600.3571428571429 477.03903067452563 645.8928571428571 398.53545924595426 655 387.6068878173828 " transform="rotate(15, 400, 400)"></path><path d="M166.25 442.06820842197965C174.59821428571428 428.2101727076939 216.33928571428572 329.53427985055106 233.03571428571428 331.2039227076939C249.73214285714286 332.8735655648368 283.125 452.3365119934082 299.82142857142856 455.4253512791225C316.5178571428571 458.5141905648368 349.9107142857143 357.0833869934082 366.6071428571429 355.9146369934082C383.30357142857144 354.7458869934082 416.69642857142856 443.8213334219796 433.39285714285717 446.0753512791225C450.0892857142857 448.3293691362653 483.48214285714283 371.1083869934082 500.17857142857144 373.946779850551C516.875 376.7851727076939 550.2678571428571 466.9458869934082 566.9642857142858 468.7824941362653C583.6607142857142 470.61910127912245 625.4017857142858 398.6574941362653 633.75 388.6396369934082 " transform="rotate(13.75, 400, 400)"></path><path d="M187.5 438.2438185555594C195.08928571428572 425.64560426984514 233.03571428571428 335.94024712698797 248.21428571428572 337.45810426984514C263.3928571428571 338.9759614127023 293.75 447.57863998413086 308.92857142857144 450.3866756984166C324.1071428571429 453.1947114127023 354.4642857142857 360.98488998413086 369.6428571428571 359.92238998413086C384.82142857142856 358.85988998413086 415.17857142857144 439.8375685555594 430.3571428571429 441.8866756984166C445.5357142857143 443.93578284127375 475.89285714285717 373.73488998413086 491.07142857142856 376.31524712698797C506.25 378.89560426984514 536.6071428571429 460.85988998413086 551.7857142857142 462.52953284127375C566.9642857142858 464.1991756984166 604.9107142857142 398.7795328412737 612.5 389.67238998413086 " transform="rotate(12.5, 400, 400)"></path><path d="M208.75 434.4194439479283C215.58035714285714 423.0810510907854 249.73214285714286 342.346229662214 263.3928571428571 343.71230109078545C277.05357142857144 345.0783725193569 304.375 442.8207832336426 318.0357142857143 445.3480153764997C331.69642857142856 447.8752475193569 359.0178571428571 364.88640823364256 372.67857142857144 363.9301582336426C386.3392857142857 362.9739082336426 413.6607142857143 435.8538189479283 427.32142857142856 437.6980153764997C440.9821428571429 439.54221180507113 468.30357142857144 376.3614082336426 481.9642857142857 378.683729662214C495.625 381.00605109078543 522.9464285714286 454.7739082336426 536.6071428571429 456.27658680507113C550.2678571428571 457.7792653764997 584.4196428571429 398.90158680507113 591.25 390.7051582336426 " transform="rotate(11.25, 400, 400)"></path><path d="M230 430.5950540815081C236.07142857142856 420.51648265293665 266.42857142857144 348.75219693865097 278.57142857142856 349.96648265293663C290.7142857142857 351.18076836722236 315 438.0629112243652 327.1428571428571 440.3093397957938C339.2857142857143 442.55576836722236 363.57142857142856 368.78791122436525 375.7142857142857 367.9379112243652C387.8571428571429 367.08791122436526 412.1428571428571 431.8700540815081 424.2857142857143 433.5093397957938C436.42857142857144 435.1486255100795 460.7142857142857 378.98791122436523 472.8571428571429 381.0521969386509C485 383.11648265293667 509.2857142857143 448.6879112243652 521.4285714285714 450.0236255100795C533.5714285714286 451.3593397957938 563.9285714285714 399.0236255100795 570 391.73791122436523 " transform="rotate(10, 400, 400)"></path><path d="M251.25 426.77066802978516C256.5625 417.95191802978513 283.125 355.15816802978514 293.75 356.22066802978514C304.375 357.28316802978514 325.625 433.30504302978517 336.25 435.27066802978516C346.875 437.23629302978514 368.125 372.68941802978514 378.75 371.94566802978517C389.375 371.20191802978513 410.625 427.8862930297852 421.25 429.32066802978517C431.875 430.75504302978516 453.125 381.61441802978516 463.75 383.42066802978513C474.375 385.22691802978517 495.625 442.60191802978517 506.25 443.77066802978516C516.875 444.93941802978514 543.4375 399.14566802978516 548.75 392.77066802978516 " transform="rotate(8.75, 400, 400)"></path><path d="M272.5 422.946293422154C277.05357142857144 415.3873648507255 299.82142857142856 361.5641505650112 308.92857142857144 362.47486485072545C318.0357142857143 363.38557913643973 336.25 428.54718627929685 345.3571428571429 430.2320077078683C354.4642857142857 431.91682913643973 372.67857142857144 376.5909362792969 381.7857142857143 375.95343627929685C390.8928571428571 375.31593627929686 409.1071428571429 423.902543422154 418.2142857142857 425.1320077078683C427.32142857142856 426.3614719935826 445.5357142857143 384.2409362792969 454.6428571428571 385.78915056501114C463.75 387.33736485072546 481.9642857142857 436.51593627929685 491.07142857142856 437.5177219935826C500.17857142857144 438.5195077078683 522.9464285714286 399.2677219935826 527.5 393.8034362792969 " transform="rotate(7.5, 400, 400)"></path><path d="M293.75 419.12190546308244C297.5446428571429 412.8227983202253 316.5178571428571 367.9701197487967 324.1071428571429 368.7290483202253C331.69642857142856 369.4879768916539 346.875 423.78931617736816 354.4642857142857 425.193334034511C362.05357142857144 426.5973518916539 377.2321428571429 380.49244117736816 384.82142857142856 379.96119117736816C392.4107142857143 379.42994117736816 407.5892857142857 419.91878046308244 415.17857142857144 420.943334034511C422.7678571428571 421.9678876059396 437.94642857142856 386.86744117736816 445.5357142857143 388.1576197487967C453.125 389.4477983202253 468.30357142857144 430.42994117736816 475.8928571428571 431.2647626059396C483.4821428571429 432.099584034511 502.4553571428571 399.3897626059396 506.25 394.83619117736816 " transform="rotate(6.25, 400, 400)"></path><path d="M315 415.29752513340543C318.0357142857143 410.2582394191197 333.2142857142857 374.37609656197685 339.2857142857143 374.9832394191197C345.3571428571429 375.5903822762626 357.5 419.031453704834 363.57142857142856 420.15466799054826C369.6428571428571 421.2778822762626 381.7857142857143 384.39395370483396 387.8571428571429 383.968953704834C393.92857142857144 383.543953704834 406.07142857142856 415.9350251334054 412.1428571428571 416.7546679905483C418.2142857142857 417.5743108476911 430.3571428571429 389.493953704834 436.42857142857144 390.52609656197683C442.5 391.5582394191197 454.6428571428571 424.343953704834 460.7142857142857 425.0118108476911C466.7857142857143 425.6796679905483 481.9642857142857 399.5118108476911 485 395.868953704834 " transform="rotate(5, 400, 400)"></path><path d="M336.25 411.473146711077C338.5267857142857 407.69368242536274 349.9107142857143 380.78207528250556 354.4642857142857 381.2374324253627C359.0178571428571 381.69278956821984 368.125 414.2735931396484 372.67857142857144 415.11600385393416C377.2321428571429 415.95841456821984 386.3392857142857 388.29546813964845 390.8928571428571 387.9767181396484C395.44642857142856 387.65796813964846 404.55357142857144 411.951271711077 409.1071428571429 412.56600385393415C413.6607142857143 413.1807359967913 422.7678571428571 392.12046813964844 427.32142857142856 392.89457528250557C431.875 393.6686824253627 440.9821428571429 418.2579681396484 445.5357142857143 418.7588609967913C450.0892857142857 419.25975385393417 461.4732142857143 399.6338609967913 463.75 396.90171813964844 " transform="rotate(3.75, 400, 400)"></path><path d="M357.5 407.64876447405135C359.0178571428571 405.1291216169085 366.6071428571429 387.18805018833706 369.6428571428571 387.4916216169085C372.67857142857144 387.7951930454799 378.75 409.51572875976564 381.7857142857143 410.07733590262274C384.82142857142856 410.6389430454799 390.8928571428571 392.1969787597656 393.92857142857144 391.98447875976564C396.9642857142857 391.7719787597656 403.0357142857143 407.9675144740513 406.07142857142856 408.37733590262275C409.1071428571429 408.7871573311942 415.17857142857144 394.7469787597656 418.2142857142857 395.26305018833705C421.25 395.77912161690847 427.32142857142856 412.17197875976564 430.3571428571429 412.5059073311942C433.3928571428571 412.8398359026228 440.9821428571429 399.7559073311942 442.5 397.9344787597656 " transform="rotate(2.5, 400, 400)"></path><path d="M378.75 403.82437842232844C379.50892857142856 402.564556993757 383.30357142857144 393.59402127947124 384.82142857142856 393.74580699375696C386.3392857142857 393.8975927080427 389.375 404.7578605651855 390.8928571428571 405.0386641366141C392.4107142857143 405.3194677080427 395.44642857142856 396.09848556518557 396.9642857142857 395.9922355651855C398.4821428571429 395.88598556518554 401.5178571428571 403.9837534223284 403.0357142857143 404.18866413661414C404.55357142857144 404.3935748508998 407.5892857142857 397.37348556518555 409.1071428571429 397.63152127947126C410.625 397.88955699375697 413.6607142857143 406.0859855651855 415.17857142857144 406.2529498508998C416.69642857142856 406.4199141366141 420.49107142857144 399.8779498508998 421.25 398.96723556518555 " transform="rotate(1.25, 400, 400)"></path></g></svg>